#!OML:ASF H:\Punching\Project 1\Capture day 1\Session 1\female.ASF
:FULLY-SPECIFIED
:DEGREES
237
root -0.110888 14.9446 -1.85094 7.79611 -0.36673 -0.83001
lowerback 2.83551 -0.673795 0.457024
upperback -5.91662 -0.911922 -0.514782
thorax -7.79218 -0.49539 -0.708564
lowerneck -12.3436 4.08377 10.4632
upperneck 30.7529 4.25137 -3.23166
head 12.5758 2.70108 -2.42655
rclavicle 1.52816e-014 -3.57812e-015
rhumerus 31.4842 10.8043 -61.907
rradius 65.7695
rwrist -0.0572787
rhand 30.7686 -35.3833
rfingers 7.12502
rthumb 54.3966 -53.9496
lclavicle 1.52816e-014 -3.57812e-015
lhumerus 27.6118 -9.92935 56.7178
lradius 79.8289
lwrist -9.00689
lhand 35.9829 25.8433
lfingers 7.12502
lthumb 58.9901 40.6418
rfemur -26.1125 -5.1595 16.8008
rtibia 49.4455
rfoot -27.8316 -8.84578
rtoes -12.5325
lfemur -27.3335 1.22915 -16.702
ltibia 49.7054
lfoot -25.2749 9.67557
ltoes -12.65
238
root -0.111672 14.9442 -1.8513 7.80967 -0.372861 -0.831122
lowerback 2.83139 -0.675741 0.451631
upperback -5.93036 -0.914371 -0.505829
thorax -7.80439 -0.496037 -0.695892
lowerneck -12.3035 4.02868 10.4493
upperneck 30.6068 4.16868 -3.20725
head 12.4992 2.6628 -2.42612
rclavicle -1.26601e-014 1.98785e-015
rhumerus 31.5116 10.8241 -61.9388
rradius 65.7391
rwrist 0.0257467
rhand 30.7883 -35.3508
rfingers 7.12502
rthumb 54.4143 -53.9048
lclavicle -1.26601e-014 1.98785e-015
lhumerus 27.586 -9.90494 56.7497
lradius 79.8059
lwrist -9.02608
lhand 35.9884 25.7996
lfingers 7.12502
lthumb 58.9949 40.5935
rfemur -26.139 -5.14683 16.812
rtibia 49.45
rfoot -27.8166 -8.86948
rtoes -12.5106
lfemur -27.3603 1.27429 -16.698
ltibia 49.7125
lfoot -25.2579 9.63852
ltoes -12.6533
239
root -0.112503 14.9445 -1.85047 7.80375 -0.387599 -0.837467
lowerback 2.84866 -0.665183 0.464078
upperback -5.9414 -0.89981 -0.512637
thorax -7.82652 -0.489933 -0.711155
lowerneck -12.2368 3.95901 10.3936
upperneck 30.426 4.05504 -3.10832
head 12.3981 2.61469 -2.39434
rclavicle -7.70291e-016 -1.59028e-015
rhumerus 31.4824 10.8513 -61.9049
rradius 65.7772
rwrist 0.018353
rhand 30.7627 -35.3834
rfingers 7.12502
rthumb 54.3913 -53.9533
lclavicle -7.70291e-016 -1.59028e-015
lhumerus 27.611 -9.93361 56.7511
lradius 79.8093
lwrist -9.03714
lhand 36.0243 25.8359
lfingers 7.12502
lthumb 59.0259 40.5997
rfemur -26.1339 -5.1095 16.8189
rtibia 49.4525
rfoot -27.8315 -8.85967
rtoes -12.478
lfemur -27.3536 1.31935 -16.6886
ltibia 49.7161
lfoot -25.2551 9.60387
ltoes -12.6356
240
root -0.112431 14.9445 -1.85 7.80757 -0.387807 -0.789941
lowerback 2.85476 -0.636411 0.448689
upperback -5.92152 -0.865613 -0.565162
thorax -7.80869 -0.473869 -0.760969
lowerneck -12.3919 3.8917 10.4228
upperneck 30.3298 3.90632 -3.03669
head 12.379 2.55709 -2.39069
rclavicle 8.19987e-016 -5.1684e-015
rhumerus 31.4815 10.7424 -61.9213
rradius 65.7677
rwrist 0.07313
rhand 30.8038 -35.3375
rfingers 7.12502
rthumb 54.4282 -53.8819
lclavicle 8.19987e-016 -5.1684e-015
lhumerus 27.7331 -9.99756 56.7334
lradius 79.7816
lwrist -9.03927
lhand 35.9944 25.8089
lfingers 7.12502
lthumb 59.0001 40.5977
rfemur -26.1401 -5.11204 16.7666
rtibia 49.4595
rfoot -27.8124 -8.88435
rtoes -12.566
lfemur -27.3531 1.33862 -16.7433
ltibia 49.7164
lfoot -25.2347 9.58749
ltoes -12.7051
241
root -0.11232 14.9444 -1.84923 7.81185 -0.391754 -0.802039
lowerback 2.84381 -0.652055 0.448322
upperback -5.93368 -0.885022 -0.539501
thorax -7.81529 -0.482583 -0.732032
lowerneck -12.2466 3.81389 10.4355
upperneck 30.1005 3.80792 -3.0507
head 12.2478 2.50854 -2.41217
rclavicle -3.62782e-015 7.95139e-016
rhumerus 31.5028 10.8258 -61.9081
rradius 65.7672
rwrist 0.0670797
rhand 30.7391 -35.3074
rfingers 7.12502
rthumb 54.3702 -53.8921
lclavicle -3.62782e-015 7.95139e-016
lhumerus 27.674 -9.97383 56.7357
lradius 79.7954
lwrist -9.02807
lhand 35.9607 25.837
lfingers 7.12502
lthumb 58.9709 40.654
rfemur -26.143 -5.10068 16.7799
rtibia 49.4617
rfoot -27.8215 -8.88472
rtoes -12.4937
lfemur -27.3553 1.35518 -16.731
ltibia 49.7231
lfoot -25.2533 9.56576
ltoes -12.6655
242
root -0.11178 14.9445 -1.84789 7.80569 -0.384009 -0.794107
lowerback 2.84587 -0.655565 0.462473
upperback -5.93586 -0.888984 -0.542403
thorax -7.81924 -0.485508 -0.742588
lowerneck -12.2128 3.73918 10.3678
upperneck 29.9365 3.69343 -2.97105
head 12.1617 2.4559 -2.38562
rclavicle -1.84994e-014 6.36111e-015
rhumerus 31.4994 10.8387 -61.9278
rradius 65.7597
rwrist 0.0855594
rhand 30.7654 -35.3054
rfingers 7.12502
rthumb 54.3938 -53.8736
lclavicle -1.84994e-014 6.36111e-015
lhumerus 27.6708 -9.98366 56.7271
lradius 79.7858
lwrist -9.02742
lhand 35.9399 25.8258
lfingers 7.12502
lthumb 58.9529 40.6603
rfemur -26.1255 -5.11018 16.7678
rtibia 49.464
rfoot -27.8292 -8.89443
rtoes -12.5373
lfemur -27.3469 1.34686 -16.7417
ltibia 49.7239
lfoot -25.2435 9.55942
ltoes -12.6379
243
root -0.112523 14.9439 -1.84803 7.81644 -0.408917 -0.802095
lowerback 2.86253 -0.65306 0.454636
upperback -5.95491 -0.885413 -0.530474
thorax -7.84915 -0.482989 -0.725754
lowerneck -12.239 3.68804 10.2354
upperneck 29.8335 3.59622 -2.80325
head 12.1114 2.41557 -2.31189
rclavicle 2.9445e-015 -4.37326e-015
rhumerus 31.5066 10.8746 -61.937
rradius 65.7614
rwrist 0.0761722
rhand 30.7362 -35.341
rfingers 7.12502
rthumb 54.3676 -53.9275
lclavicle 2.9445e-015 -4.37326e-015
lhumerus 27.6581 -9.989 56.7469
lradius 79.7531
lwrist -9.07626
lhand 35.9278 25.7593
lfingers 7.12502
lthumb 58.9425 40.6038
rfemur -26.1529 -5.06737 16.7824
rtibia 49.4766
rfoot -27.8268 -8.90991
rtoes -12.5703
lfemur -27.3609 1.38388 -16.7308
ltibia 49.7317
lfoot -25.2429 9.53155
ltoes -12.6195
244
root -0.111786 14.9445 -1.84656 7.81092 -0.415533 -0.782868
lowerback 2.85418 -0.653481 0.445802
upperback -5.95478 -0.88658 -0.530232
thorax -7.84398 -0.483014 -0.720531
lowerneck -12.2018 3.61514 10.1816
upperneck 29.6718 3.48822 -2.74399
head 12.0278 2.36481 -2.29473
rclavicle -6.90777e-015 7.95139e-015
rhumerus 31.5088 10.897 -61.932
rradius 65.7521
rwrist 0.0736643
rhand 30.7732 -35.3217
rfingers 7.12502
rthumb 54.4007 -53.8852
lclavicle -6.90777e-015 7.95139e-015
lhumerus 27.6441 -9.9993 56.7541
lradius 79.74
lwrist -9.06923
lhand 35.8801 25.7344
lfingers 7.12502
lthumb 58.9012 40.6187
rfemur -26.1411 -5.06957 16.7547
rtibia 49.4887
rfoot -27.8438 -8.8992
rtoes -12.5464
lfemur -27.3424 1.39102 -16.759
ltibia 49.7263
lfoot -25.2526 9.52629
ltoes -12.6247
245
root -0.111735 14.9433 -1.84595 7.80465 -0.396145 -0.760733
lowerback 2.86443 -0.663386 0.428557
upperback -5.93443 -0.901228 -0.53415
thorax -7.82803 -0.48921 -0.713555
lowerneck -12.2681 3.53979 10.2259
upperneck 29.5174 3.3651 -2.76831
head 11.9717 2.30706 -2.32694
rclavicle -8.77137e-015 7.55382e-015
rhumerus 31.5576 10.8798 -61.9562
rradius 65.7526
rwrist 0.0690986
rhand 30.7991 -35.312
rfingers 7.12502
rthumb 54.4239 -53.8593
lclavicle -8.77137e-015 7.55382e-015
lhumerus 27.6798 -9.97795 56.7524
lradius 79.758
lwrist -9.06173
lhand 35.9393 25.785
lfingers 7.12502
lthumb 58.9524 40.6199
rfemur -26.1397 -5.09141 16.7301
rtibia 49.515
rfoot -27.8517 -8.90119
rtoes -12.5525
lfemur -27.3427 1.3808 -16.7839
ltibia 49.7291
lfoot -25.2365 9.53708
ltoes -12.7099
246
root -0.111355 14.9436 -1.84492 7.79611 -0.390974 -0.726678
lowerback 2.87556 -0.67191 0.396274
upperback -5.93711 -0.914862 -0.533679
thorax -7.8371 -0.493975 -0.693525
lowerneck -12.2302 3.43846 10.1573
upperneck 29.344 3.21864 -2.70445
head 11.8805 2.23736 -2.31077
rclavicle -6.53505e-015 1.98785e-015
rhumerus 31.5607 10.907 -61.9712
rradius 65.7473
rwrist 0.0872332
rhand 30.7107 -35.2277
rfingers 7.12502
rthumb 54.3448 -53.83
lclavicle -6.53505e-015 1.98785e-015
lhumerus 27.6385 -9.96992 56.7776
lradius 79.7336
lwrist -9.08389
lhand 35.8728 25.6891
lfingers 7.12502
lthumb 58.8949 40.5794
rfemur -26.1292 -5.11307 16.6905
rtibia 49.5294
rfoot -27.8709 -8.89692
rtoes -12.5459
lfemur -27.327 1.37117 -16.8243
ltibia 49.7297
lfoot -25.2457 9.53195
ltoes -12.7161
